# xmcd
#
# Track frame offsets:
#	150
#	14250
#	31050
#	45225
#	59175
#	72637
#	83200
#	97275
#	107512
#	118837
#	131475
#	147000
#	157425
#	174975
#
# Disc length: 2538 seconds
#
# Revision: 1
# Processed by: cddbd v1.5.2PL0 Copyright (c) Steve Scherf et al.
# Submitted via: audiograbber 1.83.01
#
DISCID=c709e80e
DTITLE=Country Express - Folge 2
DYEAR=1993
DGENRE=Country
TTITLE0=Detour - Louisville
TTITLE1=Asleep At The Wheel - Route 66
TTITLE2=Texas Radio - Time To Go Home
TTITLE3=Tom Russell - As A Crow Flies
TTITLE4=The Lynn Morris Band - The Bramble And The Rose
TTITLE5=Jim Eanes - I Wouldn't Change You If I Could
TTITLE6=Kimmie Rhodes - Man In The Moon
TTITLE7=George and Lucky Riders - Rock A Boogie Billy
TTITLE8=Kimmie Rhodes - I'm His Little Chevrolet
TTITLE9=Tom Russell - Home Before Dark
TTITLE10=Jill Morris - Walking On The Moon
TTITLE11=Tommy Overstreet - Ann, Don't Go Running
TTITLE12=Drifters Caravan - DC Waltz
TTITLE13=Asleep At The Wheel - Dance With Who Brung You
EXTD=Aus der Fernsehsendung 'Country Express'\n(P) (C) 1993 by Tonträger Musikv
EXTD=erlag Rüsselsheim
EXTT0=
EXTT1=
EXTT2=
EXTT3=
EXTT4=
EXTT5=
EXTT6=
EXTT7=
EXTT8=
EXTT9=
EXTT10=
EXTT11=
EXTT12=
EXTT13=
PLAYORDER=
